{"title":"Taken 2[2012][Extended-Unrated]BRrip[Ac3-5.1]-=[CaLvIn]=-","uid":7992296,"size":746691927,"categoryP":"video","categoryS":"movies","magnet":"?xt=urn:btih:5398e54176711789c730fd6a55994e2279380eda&amp;dn=Taken+2%5B2012%5D%5BExtended-Unrated%5DBRrip%5BAc3-5.1%5D-%3D%5BCaLvIn%5D%3D-&amp;tr=udp%3A%2F%2Ftracker.openbittorrent.com%3A80&amp;tr=udp%3A%2F%2Fopen.demonii.com%3A1337&amp;tr=udp%3A%2F%2Ftracker.coppersurfer.tk%3A6969&amp;tr=udp%3A%2F%2Fexodus.desync.com%3A6969","seeders":0,"leechers":2,"uploader":"rhythmtheguru","files":15,"time":1357470822,"description":"General\nComplete name           : Taken 2[2012][Extended-Unrated]BRrip[Ac3-5.1]-=[CaLvIn]=-\nFormat                           : AVI\nFormat/Info                      : Audio Video Interleave\nFile size                        : 699 MiB\nDuration                         : 1h 38mn\nOverall bit rate                 : 995 Kbps\nWriting application              : VirtualDubMod 1.5.10.3 | www.virtualdub-fr.org || (build 2550/release)\nWriting library                  : VirtualDubMod build 2550/release\n\nVideo\nID                               : 0\nFormat                           : MPEG-4 Visual\nFormat profile                   : Advanced Simple@L5\nFormat settings, BVOP            : 2\nFormat settings, QPel            : No\nFormat settings, GMC             : No warppoints\nFormat settings, Matrix          : Default (H.263)\nCodec ID                         : XVID\nCodec ID/Hint                    : XviD\nDuration                         : 1h 38mn\nBit rate                         : 729 Kbps\nWidth                            : 720 pixels\nHeight                           : 304 pixels\nDisplay aspect ratio             : 16:9\nFrame rate                       : 23.976 fps\nColor space                      : YUV\nChroma subsampling               : 4:2:0\nBit depth                        : 8 bits\nScan type                        : Progressive\nCompression mode                 : Lossy\nBits/(Pixel*Frame)               : 0.139\nStream size                      : 513 MiB (73%)\nWriting library                  : XviD 1.2.1 (UTC 2008-12-04)\n\nAudio\nID                               : 1\nFormat                           : AC-3\nFormat/Info                      : Audio Coding 3\nMode extension                   : CM (complete main)\nCodec ID                         : 2000\nDuration                         : 1h 38mn\nBit rate mode                    : Constant\nBit rate                         : 256 Kbps\nChannel(s)                       : 6 channels\nChannel positions                : Front: L C R, Side: L R, LFE\nSampling rate                    : 48.0 KHz\nBit depth                        : 16 bits\nCompression mode                 : Lossy\nStream size                      : 180 MiB (26%)\nAlignment                        : Split accross interleaves\nInterleave, duration             : 42 ms (1.00 video frame)\nInterleave, preload duration     : 500 ms\n\n\nScreens\n &lt;a href=&quot;\nhttp://img89.imageshack.us/img89/4059/31482175.png&quot; rel=&quot;nofollow&quot; target=&quot;_NEW&quot;&gt;\nhttp://img89.imageshack.us/img89/4059/31482175.png&lt;/a&gt; &lt;a href=&quot;\nhttp://img834.imageshack.us/img834/1030/58741202.png&quot; rel=&quot;nofollow&quot; target=&quot;_NEW&quot;&gt;\nhttp://img834.imageshack.us/img834/1030/58741202.png&lt;/a&gt; &lt;a href=&quot;\nhttp://img145.imageshack.us/img145/6270/85943119.png&quot; rel=&quot;nofollow&quot; target=&quot;_NEW&quot;&gt;\nhttp://img145.imageshack.us/img145/6270/85943119.png&lt;/a&gt; &lt;a href=&quot;\nhttp://img37.imageshack.us/img37/544/74114097.png&quot; rel=&quot;nofollow&quot; target=&quot;_NEW&quot;&gt;\nhttp://img37.imageshack.us/img37/544/74114097.png&lt;/a&gt; &lt;a href=&quot;\nhttp://img577.imageshack.us/img577/7050/32719373.png&quot; rel=&quot;nofollow&quot; target=&quot;_NEW&quot;&gt;\nhttp://img577.imageshack.us/img577/7050/32719373.png&lt;/a&gt; &lt;a href=&quot;\nhttp://img716.imageshack.us/img716/395/57993158.png&quot; rel=&quot;nofollow&quot; target=&quot;_NEW&quot;&gt;\nhttp://img716.imageshack.us/img716/395/57993158.png&lt;/a&gt; &lt;a href=&quot;\nhttp://img853.imageshack.us/img853/5741/75229232.png&quot; rel=&quot;nofollow&quot; target=&quot;_NEW&quot;&gt;\nhttp://img853.imageshack.us/img853/5741/75229232.png&lt;/a&gt; &lt;a href=&quot;\nhttp://img571.imageshack.us/img571/5930/16420937.png&quot; rel=&quot;nofollow&quot; target=&quot;_NEW&quot;&gt;\nhttp://img571.imageshack.us/img571/5930/16420937.png&lt;/a&gt; &lt;a href=&quot;\nhttp://img818.imageshack.us/img818/3100/76518633.png&quot; rel=&quot;nofollow&quot; target=&quot;_NEW&quot;&gt;\nhttp://img818.imageshack.us/img818/3100/76518633.png&lt;/a&gt; &lt;a href=&quot;\nhttp://img826.imageshack.us/img826/2293/11968562.png&quot; rel=&quot;nofollow&quot; target=&quot;_NEW&quot;&gt;\nhttp://img826.imageshack.us/img826/2293/11968562.png&lt;/a&gt;","torrent":{"xt":"urn:btih:5398e54176711789c730fd6a55994e2279380eda","amp;dn":"Taken+2%5B2012%5D%5BExtended-Unrated%5DBRrip%5BAc3-5.1%5D-%3D%5BCaLvIn%5D%3D-","amp;tr":["udp%3A%2F%2Ftracker.openbittorrent.com%3A80","udp%3A%2F%2Fopen.demonii.com%3A1337","udp%3A%2F%2Ftracker.coppersurfer.tk%3A6969","udp%3A%2F%2Fexodus.desync.com%3A6969"],"infoHash":"5398e54176711789c730fd6a55994e2279380eda","infoHashBuffer":{"type":"Buffer","data":[83,152,229,65,118,113,23,137,199,48,253,106,85,153,78,34,121,56,14,218]},"announce":[],"urlList":[]}}